# xmcd
#
# Track frame offsets:
#	182
#	12917
#	28525
#	41175
#	50470
#	61167
#	73787
#	86987
#	96637
#	109175
#	121540
#	135032
#	154195
#	164637
#	175107
#	190837
#	213185
#
# Disc length: 3021
#
# Revision: 3
# Processed by: cddbd v1.5.1PL0 Copyright (c) Steve Scherf et al.
# Submitted via: EasyCD2 v3.00 - Copyright (c) 1997 Greg Leichner
# Normalized: r1:TSWAP
#
DISCID=e60bcb11
DTITLE=Soul Music Collection - 4. - Il Soul Diventa Grande
DYEAR=1900
DGENRE=
TTITLE0=James Brown - It's A Man's Man's World
TTITLE1=Ike and Tina Turner - River Deep, Mountain High
TTITLE2=Johnnie Taylor - I Ain't Particular
TTITLE3=Bobby Womack - I'm A Midnight Mover
TTITLE4=Etta James - Tel Mama
TTITLE5=Nina Simone - Don't Let Me Be Misunderstood
TTITLE6=Fontella Bass - Rescue Me
TTITLE7=James Brown - Papa's Got A Brand New Bag (Part 1)
TTITLE8=Arthur Alexander - Funny How Time Slips Away
TTITLE9=Jerry Butler - He Will Break Your Heart
TTITLE10=Ike and Tina Turner - Nutbush City Limits
TTITLE11=The Friends Of Distinction - Going In Circles
TTITLE12=Irma Thomas - Wish Someone Would Care
TTITLE13=The Impressions - Gypsy Woman
TTITLE14=The Impressions - Amen
TTITLE15=Nina Simone - Mr. Bojangles
TTITLE16=James Brown - Say It Loud, I'm Black And Proud
EXTD=by David K. (Opatija City) - Croatia
EXTT0=
EXTT1=
EXTT2=
EXTT3=
EXTT4=
EXTT5=
EXTT6=
EXTT7=
EXTT8=
EXTT9=
EXTT10=
EXTT11=
EXTT12=
EXTT13=
EXTT14=
EXTT15=
EXTT16=
PLAYORDER=
